<svg xmlns="http://www.w3.org/2000/svg" version="1.1" xmlns:xlink="http://www.w3.org/1999/xlink" xmlns:svgjs="http://svgjs.dev/svgjs" width="630" height="620" viewBox="0 0 1500 937"><g transform="matrix(1,0,0,1,0,0)"><svg viewBox="0 0 512 320" data-background-color="#ffffff" preserveAspectRatio="xMidYMid meet" height="937" width="1500" xmlns="http://www.w3.org/2000/svg" xmlns:xlink="http://www.w3.org/1999/xlink"><g id="tight-bounds" transform="matrix(1,0,0,1,0,0)"><svg viewBox="0 0 512 320" height="320" width="512"><g><svg></svg></g><g><svg viewBox="0 0 512 320" height="320" width="512"><g><path d="M96 160c0-88.366 71.634-160 160-160 88.366 0 160 71.634 160 160 0 88.366-71.634 160-160 160-88.366 0-160-71.634-160-160z" fill="#f0582b" fill-rule="nonzero" stroke="none" stroke-width="1" stroke-linecap="butt" stroke-linejoin="miter" stroke-miterlimit="10" stroke-dasharray="" stroke-dashoffset="0" font-family="none" font-weight="none" font-size="none" text-anchor="none" style="mix-blend-mode: normal" data-fill-palette-color="tertiary"></path></g><g transform="matrix(1,0,0,1,191.41383989145183,80)"><svg viewBox="0 0 129.17232021709634 160" height="160" width="129.17232021709634"><g><svg viewBox="0 0 129.17232021709634 160" height="160" width="129.17232021709634"><g><svg viewBox="0 0 129.17232021709634 160" height="160" width="129.17232021709634"><g id="textblocktransform"><svg viewBox="0 0 129.17232021709634 160" height="160" width="129.17232021709634" id="textblock"><g><svg viewBox="0 0 129.17232021709634 160" height="160" width="129.17232021709634"><g transform="matrix(1,0,0,1,0,0)"><svg width="129.17232021709634" viewBox="4.69 -35.99 29.05 35.99" height="160" data-palette-color="#ffffff"><path d="M33.74-18.99L33.74-18.99Q33.74-14.55 32.79-11.4 31.84-8.25 30.37-6.13 28.91-4 27.08-2.78 25.24-1.56 23.54-0.95 21.83-0.34 20.41-0.17 18.99 0 18.31 0L18.31 0 4.69 0 4.69-35.99 15.53-35.99Q20.07-35.99 23.51-34.55 26.95-33.11 29.22-30.71 31.49-28.32 32.62-25.27 33.74-22.22 33.74-18.99ZM10.55-4.3L16.36-4.3Q22.31-4.3 24.95-8.11 27.59-11.91 27.59-19.14L27.59-19.14Q27.59-21.39 27.05-23.58 26.51-25.78 24.98-27.56 23.44-29.35 20.8-30.44 18.16-31.54 13.96-31.54L13.96-31.54 10.55-31.54 10.55-4.3Z" opacity="1" transform="matrix(1,0,0,1,0,0)" fill="#ffffff" class="wordmark-text-0" data-fill-palette-color="quaternary" id="text-0"></path></svg></g></svg></g></svg></g></svg></g></svg></g></svg></g></svg></g><defs></defs></svg><rect width="512" height="320" fill="none" stroke="none" visibility="hidden"></rect></g></svg></g></svg>